<svg width="1200" height="760" viewBox="0 0 1200 760" fill="none" xmlns="http://www.w3.org/2000/svg">
  <rect width="1200" height="760" fill="#F3F7FA"/>
  <rect x="56" y="48" width="1088" height="220" rx="20" fill="#0F766E"/>
  <text x="92" y="105" fill="#BFF7EC" font-family="sans-serif" font-size="20">Open Source Learning Navigator</text>
  <text x="92" y="156" fill="#F3FFFD" font-family="sans-serif" font-size="48" font-weight="700">高星教育开源项目</text>
  <text x="92" y="202" fill="#DDFBF4" font-family="sans-serif" font-size="24">30 分钟确定方向，7 天进入稳定学习节奏</text>
  <rect x="92" y="224" width="176" height="34" rx="17" fill="#FACC15"/>
  <text x="114" y="247" fill="#1F2937" font-family="sans-serif" font-size="16" font-weight="700">查看学习路径</text>

  <rect x="56" y="290" width="350" height="116" rx="14" fill="white" stroke="#D6DEEA"/>
  <rect x="425" y="290" width="350" height="116" rx="14" fill="white" stroke="#D6DEEA"/>
  <rect x="794" y="290" width="350" height="116" rx="14" fill="white" stroke="#D6DEEA"/>
  <text x="84" y="332" fill="#111827" font-family="sans-serif" font-size="24" font-weight="700">为谁而做</text>
  <text x="84" y="365" fill="#4B5563" font-family="sans-serif" font-size="17">中文学习者低成本定方向</text>
  <text x="453" y="332" fill="#111827" font-family="sans-serif" font-size="24" font-weight="700">维护节奏</text>
  <text x="453" y="365" fill="#4B5563" font-family="sans-serif" font-size="17">每周校验链接并增补内容</text>
  <text x="822" y="332" fill="#111827" font-family="sans-serif" font-size="24" font-weight="700">质量保障</text>
  <text x="822" y="365" fill="#4B5563" font-family="sans-serif" font-size="17">Schema + 外链可达双重检查</text>

  <rect x="56" y="432" width="1088" height="272" rx="16" fill="white" stroke="#D6DEEA"/>
  <text x="88" y="475" fill="#111827" font-family="sans-serif" font-size="30" font-weight="700">学习路径与资源筛选</text>
  <rect x="88" y="500" width="200" height="42" rx="10" fill="#F8FAFC" stroke="#CBD5E1"/>
  <rect x="304" y="500" width="200" height="42" rx="10" fill="#F8FAFC" stroke="#CBD5E1"/>
  <rect x="520" y="500" width="200" height="42" rx="10" fill="#F8FAFC" stroke="#CBD5E1"/>
  <rect x="736" y="500" width="120" height="42" rx="10" fill="#0F766E"/>
  <text x="768" y="527" fill="white" font-family="sans-serif" font-size="18" font-weight="700">重置</text>
  <rect x="88" y="566" width="330" height="120" rx="12" fill="#FFFFFF" stroke="#D6DEEA"/>
  <rect x="435" y="566" width="330" height="120" rx="12" fill="#FFFFFF" stroke="#D6DEEA"/>
  <rect x="782" y="566" width="330" height="120" rx="12" fill="#FFFFFF" stroke="#D6DEEA"/>
</svg>
